# xmcd
#
# Track frame offsets: 
#        150
#        13399
#        34071
#        57708
#        72706
#        95029
#        111541
#        125857
#        151603
#        183609
#        197293
#        210394
#        228272
#
# Disc length: 3334 seconds
#
# Revision: 0
# Processed by: cddbd v1.5.2PL0 Copyright (c) Steve Scherf et al.
# Submitted via: ExactAudioCopy v0.95b4
#
DISCID=c20d040d
DTITLE=King Johnson - Luck So Strange
DYEAR=2000
DGENRE=Blues Funk
TTITLE0=Mountain
TTITLE1=19-20-21
TTITLE2=Slow Down
TTITLE3=Ralph
TTITLE4=Dead Dog
TTITLE5=Luckiest Man
TTITLE6=Another 2nd Chance
TTITLE7=Suits Me Fine
TTITLE8=Shadow of Wood
TTITLE9=Hey Yeah
TTITLE10=Ain't Next To You
TTITLE11=Wil E.
TTITLE12=Luck So Strange
EXTD=
EXTT0=
EXTT1=
EXTT2=
EXTT3=
EXTT4=
EXTT5=
EXTT6=
EXTT7=
EXTT8=
EXTT9=
EXTT10=
EXTT11=
EXTT12=
PLAYORDER=
